# xmcd CD database file
#
# Track frame offsets:
#	150
#	24450
#	51375
#	75825
#	101175
#	130500
#	161025
#	189225
#	221775
#	249150
#
# Disc length: 3601 seconds
#
# Revision: 0
# Processed by: cddbd v1.5.2PL0 Copyright (c) Steve Scherf et al.
# Submitted via: CDex 1.70beta2
#
DISCID=7b0e0f0a
DTITLE=白崎彩子 - Musically Yours
DYEAR=2004
DGENRE=Jazz
TTITLE0=Seven Steps To Heaven
TTITLE1=Brooklyn Boogaloo
TTITLE2=Hazy Moon
TTITLE3=Four In One
TTITLE4=Quiet Now
TTITLE5=Un Poco Loco
TTITLE6=Ayakology
TTITLE7=Here's That Rainy Day
TTITLE8=It's All Right With Me
TTITLE9=Lush Life (Piano Solo)
EXTD=YEAR: 2004
EXTT0=
EXTT1=
EXTT2=
EXTT3=
EXTT4=
EXTT5=
EXTT6=
EXTT7=
EXTT8=
EXTT9=
PLAYORDER=
